# Blender v2.78 (sub 0) OBJ File: 'SCARECROW FIELDS.blend'
# www.blender.org
mtllib fence.mtl
o Cube.002
v 2.155418 0.800483 0.284857
v 2.180810 0.871881 0.284246
v 1.580331 0.989351 -1.543658
v 1.605723 1.060750 -1.544269
v 2.199205 0.784779 0.269463
v 2.224597 0.856177 0.268852
v 1.624118 0.973647 -1.559052
v 1.649510 1.045046 -1.559663
v 2.055564 0.508886 0.298301
v 2.082136 0.579782 0.301559
v 1.516006 0.795045 -1.528405
v 1.542578 0.865941 -1.525148
v 2.099351 0.493182 0.282907
v 2.125923 0.564078 0.286165
v 1.559793 0.779341 -1.543799
v 1.586365 0.850237 -1.540541
v 1.756342 1.148384 -1.362882
v 1.735936 1.161806 -1.434620
v 1.473759 0.415996 -1.419527
v 1.453353 0.429418 -1.491265
v 1.800129 1.132680 -1.378276
v 1.779723 1.146102 -1.450013
v 1.517547 0.400292 -1.434921
v 1.497141 0.413714 -1.506658
v 1.788222 1.128828 -1.252250
v 1.766158 1.137826 -1.324188
v 1.519406 0.389172 -1.262321
v 1.497343 0.398170 -1.334260
v 1.832009 1.113124 -1.267643
v 1.809946 1.122122 -1.339582
v 1.563193 0.373468 -1.277715
v 1.541130 0.382466 -1.349653
v 1.855485 1.199985 -1.117508
v 1.827633 1.207288 -1.204183
v 1.543146 0.304669 -1.092580
v 1.515295 0.311972 -1.179255
v 1.908257 1.181058 -1.136061
v 1.880406 1.188361 -1.222736
v 1.595919 0.285742 -1.111133
v 1.568067 0.293045 -1.197807
v 1.890468 1.069875 -0.901267
v 1.870973 1.085621 -0.972785
v 1.601033 0.342496 -0.982515
v 1.581537 0.358242 -1.054033
v 1.934255 1.054171 -0.916661
v 1.914760 1.069917 -0.988179
v 1.644820 0.326792 -0.997909
v 1.625325 0.342538 -1.069427
v 1.922670 1.045829 -0.785136
v 1.901441 1.057087 -0.857007
v 1.646702 0.309519 -0.818968
v 1.625473 0.320778 -0.890839
v 1.966457 1.030124 -0.800530
v 1.945229 1.041383 -0.872401
v 1.690489 0.293815 -0.834362
v 1.669260 0.305074 -0.906233
v 1.997521 1.143904 -0.654555
v 1.970471 1.155021 -0.742840
v 1.667378 0.236259 -0.667694
v 1.640328 0.247376 -0.755980
v 2.051259 1.124631 -0.673447
v 2.024209 1.135748 -0.761732
v 1.721115 0.216986 -0.686587
v 1.694065 0.228103 -0.774872
v 2.033511 1.031716 -0.455453
v 2.013720 1.046715 -0.527050
v 1.746249 0.302637 -0.528783
v 1.726458 0.317636 -0.600381
v 2.077298 1.016012 -0.470846
v 2.057507 1.031011 -0.542444
v 1.790036 0.286932 -0.544177
v 1.770245 0.301931 -0.615774
v 2.149235 1.069957 -0.155046
v 2.122628 1.075477 -0.236360
v 1.860561 0.228459 -0.117707
v 1.833954 0.233979 -0.199021
v 2.198772 1.052191 -0.172462
v 2.172166 1.057710 -0.253775
v 1.910099 0.210693 -0.135123
v 1.883492 0.216212 -0.216437
v 2.193612 0.995210 0.037199
v 2.173444 1.009246 -0.034488
v 1.909191 0.264066 -0.025945
v 1.889023 0.278102 -0.097632
v 2.237399 0.979505 0.021805
v 2.217231 0.993542 -0.049882
v 1.952978 0.248361 -0.041338
v 1.932810 0.262398 -0.113026
v 2.269224 1.059582 0.199545
v 2.245471 1.075333 0.115913
v 1.939447 0.205877 0.132420
v 1.915695 0.221628 0.048787
v 2.320276 1.041272 0.181597
v 2.296524 1.057023 0.097965
v 1.990499 0.187568 0.114472
v 1.966747 0.203319 0.030839
v 2.352905 0.831741 0.410515
v 2.353817 0.826224 0.318745
v 2.016396 0.071883 0.443799
v 2.017308 0.066366 0.352029
v 2.400249 0.810899 0.412768
v 2.401161 0.805382 0.320998
v 2.063740 0.051041 0.446052
v 2.064652 0.045524 0.354282
v 1.292374 0.578522 -0.024071
v 1.259342 0.607216 -0.104932
v 2.004667 0.369888 -0.399359
v 1.971634 0.398582 -0.480220
v 1.311263 0.625756 -0.014425
v 1.278231 0.654450 -0.095286
v 2.023556 0.417122 -0.389713
v 1.990523 0.445816 -0.470573
vt 0.0346 0.2656
vt 0.0346 0.0534
vt 0.9654 0.0534
vt 0.9654 0.2656
vt 0.0397 0.3186
vt 0.0397 0.1063
vt 0.9704 0.1063
vt 0.9704 0.3186
vt 0.0346 0.4018
vt 0.0346 0.1896
vt 0.9654 0.1896
vt 0.9654 0.4018
vt 0.0397 0.3186
vt 0.0397 0.1063
vt 0.9704 0.1063
vt 0.9704 0.3186
vt 0.0397 0.1063
vt 0.9704 0.1063
vt 0.0397 0.3186
vt 0.9704 0.3186
vt 0.0346 0.6061
vt 0.0346 0.3939
vt 0.9654 0.3939
vt 0.9654 0.6061
vt 0.0346 0.6061
vt 0.0346 0.3939
vt 0.9654 0.3939
vt 0.9654 0.6061
vt 0.0346 0.6061
vt 0.0346 0.3939
vt 0.9654 0.3939
vt 0.9654 0.6061
vt 0.0346 0.6061
vt 0.0346 0.3939
vt 0.9654 0.3939
vt 0.9654 0.6061
vt 0.0346 0.3939
vt 0.9654 0.3939
vt 0.0346 0.6061
vt 0.9654 0.6061
vt 0.0346 0.6061
vt 0.0346 0.3939
vt 0.9654 0.3939
vt 0.9654 0.6061
vt 0.0346 0.6061
vt 0.0346 0.3939
vt 0.9654 0.3939
vt 0.9654 0.6061
vt 0.0346 0.3791
vt 0.0346 0.1669
vt 0.9654 0.1669
vt 0.9654 0.3791
vt 0.0346 0.6061
vt 0.0346 0.3939
vt 0.9654 0.3939
vt 0.9654 0.6061
vt 0.0346 0.3939
vt 0.9654 0.3939
vt 0.0346 0.6061
vt 0.9654 0.6061
vt 0.0346 0.6061
vt 0.0346 0.3939
vt 0.9654 0.3939
vt 0.9654 0.6061
vt 0.0346 0.6061
vt 0.0346 0.3939
vt 0.9654 0.3939
vt 0.9654 0.6061
vt 0.0346 0.6061
vt 0.0346 0.3939
vt 0.9654 0.3939
vt 0.9654 0.6061
vt 0.0346 0.6061
vt 0.0346 0.3939
vt 0.9654 0.3939
vt 0.9654 0.6061
vt 0.0346 0.3939
vt 0.9654 0.3939
vt 0.0346 0.6061
vt 0.9654 0.6061
vt 0.0346 0.6061
vt 0.0346 0.3939
vt 0.9654 0.3939
vt 0.9654 0.6061
vt 0.0346 0.6061
vt 0.0346 0.3939
vt 0.9654 0.3939
vt 0.9654 0.6061
vt 0.0397 0.9466
vt 0.0397 0.7344
vt 0.9704 0.7344
vt 0.9704 0.9466
vt 0.0346 0.6061
vt 0.0346 0.3939
vt 0.9654 0.3939
vt 0.9654 0.6061
vt 0.0346 0.3939
vt 0.9654 0.3939
vt 0.0346 0.6061
vt 0.9654 0.6061
vt 0.0346 0.6061
vt 0.0346 0.3939
vt 0.9654 0.3939
vt 0.9654 0.6061
vt 0.0346 0.6061
vt 0.0346 0.3939
vt 0.9654 0.3939
vt 0.9654 0.6061
vt 0.0346 0.6061
vt 0.0346 0.3939
vt 0.9654 0.3939
vt 0.9654 0.6061
vt 0.0346 0.6061
vt 0.0346 0.3939
vt 0.9654 0.3939
vt 0.9654 0.6061
vt 0.0346 0.3939
vt 0.9654 0.3939
vt 0.0346 0.6061
vt 0.9654 0.6061
vt 0.0346 0.6061
vt 0.0346 0.3939
vt 0.9654 0.3939
vt 0.9654 0.6061
vt 0.0346 0.6061
vt 0.0346 0.3939
vt 0.9654 0.3939
vt 0.9654 0.6061
vt 0.0346 0.2959
vt 0.0346 0.0836
vt 0.9654 0.0836
vt 0.9654 0.2959
vt 0.0346 0.6061
vt 0.0346 0.3939
vt 0.9654 0.3939
vt 0.9654 0.6061
vt 0.0346 0.3939
vt 0.9654 0.3939
vt 0.0346 0.6061
vt 0.9654 0.6061
vt 0.0346 0.6061
vt 0.0346 0.3939
vt 0.9654 0.3939
vt 0.9654 0.6061
vt 0.0346 0.6061
vt 0.0346 0.3939
vt 0.9654 0.3939
vt 0.9654 0.6061
vt 0.0245 0.8634
vt 0.0245 0.6512
vt 0.9553 0.6512
vt 0.9553 0.8634
vt 0.0346 0.6061
vt 0.0346 0.3939
vt 0.9654 0.3939
vt 0.9654 0.6061
vt 0.0346 0.3939
vt 0.9654 0.3939
vt 0.0346 0.6061
vt 0.9654 0.6061
vt 0.0346 0.6061
vt 0.0346 0.3939
vt 0.9654 0.3939
vt 0.9654 0.6061
vt 0.0346 0.6061
vt 0.0346 0.3939
vt 0.9654 0.3939
vt 0.9654 0.6061
vt 0.0346 0.6061
vt 0.0346 0.3939
vt 0.9654 0.3939
vt 0.9654 0.6061
vt 0.0346 0.6061
vt 0.0346 0.3939
vt 0.9654 0.3939
vt 0.9654 0.6061
vt 0.0346 0.3939
vt 0.9654 0.3939
vt 0.0346 0.6061
vt 0.9654 0.6061
vt 0.0346 0.6061
vt 0.0346 0.3939
vt 0.9654 0.3939
vt 0.9654 0.6061
vt 0.0346 0.6061
vt 0.0346 0.3939
vt 0.9654 0.3939
vt 0.9654 0.6061
vt 0.0296 0.2807
vt 0.0296 0.0685
vt 0.9603 0.0685
vt 0.9603 0.2807
vt 0.0346 0.6061
vt 0.0346 0.3939
vt 0.9654 0.3939
vt 0.9654 0.6061
vt 0.0346 0.3939
vt 0.9654 0.3939
vt 0.0346 0.6061
vt 0.9654 0.6061
vt 0.0346 0.6061
vt 0.0346 0.3939
vt 0.9654 0.3939
vt 0.9654 0.6061
vt 0.0346 0.6061
vt 0.0346 0.3939
vt 0.9654 0.3939
vt 0.9654 0.6061
vt 0.0346 0.6061
vt 0.0346 0.3939
vt 0.9654 0.3939
vt 0.9654 0.6061
vt 0.0346 0.6061
vt 0.0346 0.3939
vt 0.9654 0.3939
vt 0.9654 0.6061
vt 0.0346 0.3939
vt 0.9654 0.3939
vt 0.0346 0.6061
vt 0.9654 0.6061
vt 0.0346 0.6061
vt 0.0346 0.3939
vt 0.9654 0.3939
vt 0.9654 0.6061
vt 0.0346 0.6061
vt 0.0346 0.3939
vt 0.9654 0.3939
vt 0.9654 0.6061
vt 0.0598 0.9391
vt 0.0598 0.7268
vt 0.9906 0.7268
vt 0.9906 0.9391
vt 0.0346 0.6061
vt 0.0346 0.3939
vt 0.9654 0.3939
vt 0.9654 0.6061
vt 0.0346 0.3939
vt 0.9654 0.3939
vt 0.0346 0.6061
vt 0.9654 0.6061
vt 0.0346 0.6061
vt 0.0346 0.3939
vt 0.9654 0.3939
vt 0.9654 0.6061
vt 0.0346 0.6061
vt 0.0346 0.3939
vt 0.9654 0.3939
vt 0.9654 0.6061
vt 0.0346 0.6061
vt 0.0346 0.3939
vt 0.9654 0.3939
vt 0.9654 0.6061
vt 0.0346 0.6061
vt 0.0346 0.3939
vt 0.9654 0.3939
vt 0.9654 0.6061
vt 0.0346 0.3939
vt 0.9654 0.3939
vt 0.0346 0.6061
vt 0.9654 0.6061
vt 0.0346 0.6061
vt 0.0346 0.3939
vt 0.9654 0.3939
vt 0.9654 0.6061
vt 0.0346 0.6061
vt 0.0346 0.3939
vt 0.9654 0.3939
vt 0.9654 0.6061
vt 0.0346 0.6061
vt 0.0346 0.3939
vt 0.9654 0.3939
vt 0.9654 0.6061
vt 0.0346 0.6061
vt 0.0346 0.3939
vt 0.9654 0.3939
vt 0.9654 0.6061
vt 0.0346 0.3939
vt 0.9654 0.3939
vt 0.0346 0.6061
vt 0.9654 0.6061
vn -0.8936 0.3205 0.3142
vn -0.2986 0.0981 -0.9493
vn 0.8936 -0.3205 -0.3142
vn 0.2986 -0.0981 0.9493
vn -0.3351 -0.9422 0.0081
vn 0.3351 0.9422 -0.0081
vn -0.2801 0.1486 -0.9484
vn 0.2801 -0.1486 0.9484
vn -0.3506 -0.9355 -0.0430
vn 0.3506 0.9355 0.0430
vn -0.3590 -0.9305 -0.0720
vn 0.3590 0.9305 0.0720
vn 0.2693 -0.1771 0.9466
vn -0.2693 0.1771 -0.9466
vn -0.3415 -0.9398 -0.0128
vn 0.3415 0.9398 0.0128
vn 0.2911 -0.1187 0.9493
vn -0.2911 0.1187 -0.9493
vn -0.3293 -0.9439 0.0263
vn 0.3293 0.9439 -0.0263
vn 0.3049 -0.0800 0.9490
vn -0.3049 0.0800 -0.9490
vn -0.3677 -0.9242 -0.1032
vn 0.3677 0.9242 0.1032
vn 0.2573 -0.2078 0.9437
vn -0.2573 0.2078 -0.9437
vn -0.3418 -0.9397 -0.0136
vn 0.3418 0.9397 0.0136
vn 0.2909 -0.1195 0.9493
vn -0.2908 0.1195 -0.9493
vn -0.3650 -0.9263 -0.0932
vn 0.3650 0.9263 0.0932
vn 0.2612 -0.1979 0.9448
vn -0.2612 0.1979 -0.9448
vn -0.3242 -0.9451 0.0419
vn 0.3242 0.9451 -0.0419
vn 0.3103 -0.0644 0.9484
vn -0.3103 0.0644 -0.9484
vn -0.3614 -0.9290 -0.0802
vn 0.3614 0.9290 0.0802
vn 0.2661 -0.1852 0.9460
vn -0.2661 0.1852 -0.9460
vn -0.3594 -0.9303 -0.0731
vn 0.3594 0.9303 0.0731
vn 0.2688 -0.1783 0.9465
vn -0.2688 0.1783 -0.9465
vn -0.9144 0.4035 -0.0333
vn -0.4044 -0.9132 0.0509
vn 0.9144 -0.4035 0.0333
vn 0.4044 0.9132 -0.0509
vn -0.0237 0.0542 0.9982
vn 0.0237 -0.0542 -0.9982
vn -0.3615 -0.9154 -0.1772
vn 0.8605 -0.2539 -0.4416
vn 0.3615 0.9154 0.1772
vn -0.8605 0.2539 0.4416
vn 0.3649 -0.3242 0.8728
vn -0.3649 0.3242 -0.8728
usemtl None
s off
f 1/1/1 2/2/1 4/3/1 3/4/1
f 3/5/2 4/6/2 8/7/2 7/8/2
f 7/9/3 8/10/3 6/11/3 5/12/3
f 5/13/4 6/14/4 2/15/4 1/16/4
f 3/5/5 7/17/5 5/18/5 1/16/5
f 8/19/6 4/6/6 2/15/6 6/20/6
f 9/21/1 10/22/1 12/23/1 11/24/1
f 11/25/7 12/26/7 16/27/7 15/28/7
f 15/29/3 16/30/3 14/31/3 13/32/3
f 13/33/8 14/34/8 10/35/8 9/36/8
f 11/25/9 15/37/9 13/38/9 9/36/9
f 16/39/10 12/26/10 10/35/10 14/40/10
f 17/41/1 18/42/1 20/43/1 19/44/1
f 19/45/11 20/46/11 24/47/11 23/48/11
f 23/49/3 24/50/3 22/51/3 21/52/3
f 21/53/12 22/54/12 18/55/12 17/56/12
f 19/45/13 23/57/13 21/58/13 17/56/13
f 24/59/14 20/46/14 18/55/14 22/60/14
f 25/61/1 26/62/1 28/63/1 27/64/1
f 27/65/15 28/66/15 32/67/15 31/68/15
f 31/69/3 32/70/3 30/71/3 29/72/3
f 29/73/16 30/74/16 26/75/16 25/76/16
f 27/65/17 31/77/17 29/78/17 25/76/17
f 32/79/18 28/66/18 26/75/18 30/80/18
f 33/81/1 34/82/1 36/83/1 35/84/1
f 35/85/19 36/86/19 40/87/19 39/88/19
f 39/89/3 40/90/3 38/91/3 37/92/3
f 37/93/20 38/94/20 34/95/20 33/96/20
f 35/85/21 39/97/21 37/98/21 33/96/21
f 40/99/22 36/86/22 34/95/22 38/100/22
f 41/101/1 42/102/1 44/103/1 43/104/1
f 43/105/23 44/106/23 48/107/23 47/108/23
f 47/109/3 48/110/3 46/111/3 45/112/3
f 45/113/24 46/114/24 42/115/24 41/116/24
f 43/105/25 47/117/25 45/118/25 41/116/25
f 48/119/26 44/106/26 42/115/26 46/120/26
f 49/121/1 50/122/1 52/123/1 51/124/1
f 51/125/9 52/126/9 56/127/9 55/128/9
f 55/129/3 56/130/3 54/131/3 53/132/3
f 53/133/10 54/134/10 50/135/10 49/136/10
f 51/125/8 55/137/8 53/138/8 49/136/8
f 56/139/7 52/126/7 50/135/7 54/140/7
f 57/141/1 58/142/1 60/143/1 59/144/1
f 59/145/27 60/146/27 64/147/27 63/148/27
f 63/149/3 64/150/3 62/151/3 61/152/3
f 61/153/28 62/154/28 58/155/28 57/156/28
f 59/145/29 63/157/29 61/158/29 57/156/29
f 64/159/30 60/146/30 58/155/30 62/160/30
f 65/161/1 66/162/1 68/163/1 67/164/1
f 67/165/31 68/166/31 72/167/31 71/168/31
f 71/169/3 72/170/3 70/171/3 69/172/3
f 69/173/32 70/174/32 66/175/32 65/176/32
f 67/165/33 71/177/33 69/178/33 65/176/33
f 72/179/34 68/166/34 66/175/34 70/180/34
f 73/181/1 74/182/1 76/183/1 75/184/1
f 75/185/35 76/186/35 80/187/35 79/188/35
f 79/189/3 80/190/3 78/191/3 77/192/3
f 77/193/36 78/194/36 74/195/36 73/196/36
f 75/185/37 79/197/37 77/198/37 73/196/37
f 80/199/38 76/186/38 74/195/38 78/200/38
f 81/201/1 82/202/1 84/203/1 83/204/1
f 83/205/39 84/206/39 88/207/39 87/208/39
f 87/209/3 88/210/3 86/211/3 85/212/3
f 85/213/40 86/214/40 82/215/40 81/216/40
f 83/205/41 87/217/41 85/218/41 81/216/41
f 88/219/42 84/206/42 82/215/42 86/220/42
f 89/221/1 90/222/1 92/223/1 91/224/1
f 91/225/43 92/226/43 96/227/43 95/228/43
f 95/229/3 96/230/3 94/231/3 93/232/3
f 93/233/44 94/234/44 90/235/44 89/236/44
f 91/225/45 95/237/45 93/238/45 89/236/45
f 96/239/46 92/226/46 90/235/46 94/240/46
f 97/241/47 98/242/47 100/243/47 99/244/47
f 99/245/48 100/246/48 104/247/48 103/248/48
f 103/249/49 104/250/49 102/251/49 101/252/49
f 101/253/50 102/254/50 98/255/50 97/256/50
f 99/245/51 103/257/51 101/258/51 97/256/51
f 104/259/52 100/246/52 98/255/52 102/260/52
f 105/261/53 106/262/53 108/263/53 107/264/53
f 107/265/54 108/266/54 112/267/54 111/268/54
f 111/269/55 112/270/55 110/271/55 109/272/55
f 109/273/56 110/274/56 106/275/56 105/276/56
f 107/265/57 111/277/57 109/278/57 105/276/57
f 112/279/58 108/266/58 106/275/58 110/280/58
